<svg enable-background="new 0 0 64 64" height="64px" version="1.1" viewBox="0 0 64 64" width="64px" xml:space="preserve" xmlns="http://www.w3.org/2000/svg" xmlns:xlink="http://www.w3.org/1999/xlink"><path d="M55.75,16.224H44.798c1.095-1.756,1.293-4.02,0.313-6.009c-1.048-2.129-3.174-3.452-5.55-3.452  c-0.951,0-1.869,0.214-2.728,0.637c-2.084,1.027-3.706,3.024-4.835,4.838c-1.129-1.815-2.75-3.812-4.835-4.839  c-0.858-0.422-1.775-0.636-2.727-0.636c-2.375,0-4.502,1.323-5.55,3.451c-0.98,1.99-0.782,4.253,0.314,6.01H8.25c-1.1,0-2,0.9-2,2  v10.374c0,1.1,0.9,2,2,2h0.546v8.565v4V53.38c0,2.131,1.727,3.857,3.856,3.857h38.695c2.13,0,3.857-1.727,3.857-3.857V30.598h0.546  c1.1,0,2-0.9,2-2V18.224C57.75,17.124,56.85,16.224,55.75,16.224z M38.601,10.988c1.067-0.525,2.406-0.057,2.923,0.994  c0.532,1.081,0.086,2.393-0.993,2.924c-0.828,0.407-1.902,0.614-3.195,0.614c-0.566,0-1.109-0.048-1.631-0.109  c-0.095-0.321-0.224-0.625-0.394-0.905C36.172,13.086,37.319,11.62,38.601,10.988z M22.476,11.981  c0.37-0.751,1.121-1.218,1.961-1.218c0.334,0,0.658,0.076,0.96,0.225c1.283,0.632,2.429,2.099,3.291,3.517  c-0.17,0.281-0.299,0.584-0.394,0.906c-0.522,0.062-1.064,0.109-1.63,0.109c-1.292,0-2.368-0.207-3.194-0.613  C22.39,14.374,21.944,13.062,22.476,11.981z M30.084,52.237H13.796v-9.075h16.288V52.237z M13.796,39.162v-8.565h16.288v8.565  H13.796z M50.204,52.237H33.916v-9.075h16.288V52.237z M50.204,39.162H33.916v-8.565h16.288V39.162z"/></svg>